<svg id="Globe_icon" data-name="Globe-icon" xmlns="http://www.w3.org/2000/svg" width="39.823" height="39.823" viewBox="0 0 39.823 39.823">
  <g id="Groupe_2" data-name="Groupe 2">
    <path id="Tracé_2" data-name="Tracé 2" d="M19.911,0A19.911,19.911,0,1,0,39.823,19.911,19.97,19.97,0,0,0,19.911,0ZM38.163,19.082H31.194c-.166-7.218-2.406-13.274-5.642-16.51A18.228,18.228,0,0,1,38.163,19.082ZM19.082,1.742V19.082H10.288C10.536,9.956,14.27,2.489,19.082,1.742Zm0,19V38.08c-4.812-.747-8.545-8.213-8.794-17.339ZM20.741,38.08V20.741h8.794C29.286,29.867,25.553,37.334,20.741,38.08Zm0-19V1.742c4.812.747,8.545,8.213,8.794,17.339ZM14.353,2.572c-3.319,3.236-5.559,9.375-5.642,16.51H1.659A18.2,18.2,0,0,1,14.353,2.572ZM1.659,20.741H8.628c.166,7.218,2.406,13.274,5.642,16.51A18.228,18.228,0,0,1,1.659,20.741ZM25.47,37.251c3.319-3.236,5.559-9.375,5.642-16.51h7.052A18.2,18.2,0,0,1,25.47,37.251Z" fill="#613dc1"/>
  </g>
</svg>
