<svg xmlns="http://www.w3.org/2000/svg" width="26.83" height="39.838" viewBox="0 0 26.83 39.838">
  <g id="Idea_icon" data-name="Idea-icon" transform="translate(22.005 -30.984)">
    <g id="Groupe_8" data-name="Groupe 8" transform="translate(-22.005 30.984)">
      <g id="Groupe_7" data-name="Groupe 7" transform="translate(0 0)">
        <path id="Tracé_14" data-name="Tracé 14" d="M20.584,0A13.328,13.328,0,0,0,8,12.914a13.123,13.123,0,0,0,3.56,9.356,13.082,13.082,0,0,1,3.56,9.273v3.229a1.838,1.838,0,0,0,1.822,1.822.178.178,0,0,1,.166.166V38a1.838,1.838,0,0,0,1.822,1.822H23.9A1.838,1.838,0,0,0,25.718,38V36.759a.178.178,0,0,1,.166-.166A1.838,1.838,0,0,0,27.7,34.772V31.626h0V30.8a12.378,12.378,0,0,1,3.477-8.363,13.344,13.344,0,0,0,3.643-9.108A13.785,13.785,0,0,0,20.584,0Zm5.133,34.775a.178.178,0,0,1-.166.166,1.838,1.838,0,0,0-1.822,1.822V38a.178.178,0,0,1-.166.166H18.6A.178.178,0,0,1,18.432,38V36.759a1.838,1.838,0,0,0-1.822-1.822.178.178,0,0,1-.166-.166v-2.4h9.025v2.4Zm3.974-13.5A13.7,13.7,0,0,0,25.718,30.8H22.9a15.7,15.7,0,0,1,3.146-7.866,12.974,12.974,0,0,0,2.567-7.866.828.828,0,1,0-1.656,0,11.381,11.381,0,0,1-2.236,6.872,17.54,17.54,0,0,0-3.477,8.942h-.083a18.3,18.3,0,0,0-3.477-8.942,12.371,12.371,0,0,1-2.153-7.286.828.828,0,1,0-1.656,0,12.95,12.95,0,0,0,2.484,8.114,16.289,16.289,0,0,1,3.146,7.949H16.693a14.437,14.437,0,0,0-3.974-9.6,11.573,11.573,0,0,1-3.146-8.2A11.76,11.76,0,0,1,20.667,1.653a11.665,11.665,0,0,1,9.025,19.623Z" transform="translate(-7.995 0.016)" fill="#613dc1"/>
      </g>
      <path id="Tracé_15" data-name="Tracé 15" d="M26.737,16.315l-2.153,2.567-1.49-6.624a.9.9,0,0,0-.662-.662.726.726,0,0,0-.828.414L18.871,16.4a.838.838,0,1,0,1.408.911l1.656-2.65,1.408,6.293a.7.7,0,0,0,.58.58h.166a.753.753,0,0,0,.662-.331l3.229-3.809a.822.822,0,0,0-1.242-1.076Z" transform="translate(-9.842 -1.978)" fill="#613dc1"/>
    </g>
  </g>
</svg>
