<svg width="33" height="33" viewBox="0 0 33 33" fill="none" xmlns="http://www.w3.org/2000/svg">
<path d="M31.2344 0.484375H1.76562C1.05693 0.484375 0.484375 1.05693 0.484375 1.76562V31.2344C0.484375 31.9431 1.05693 32.5156 1.76562 32.5156H31.2344C31.9431 32.5156 32.5156 31.9431 32.5156 31.2344V1.76562C32.5156 1.05693 31.9431 0.484375 31.2344 0.484375ZM9.98564 27.779H5.23301V12.4921H9.98564V27.779ZM7.61133 10.4021C7.0665 10.4021 6.53391 10.2405 6.08091 9.9378C5.6279 9.63511 5.27482 9.20489 5.06633 8.70154C4.85783 8.19818 4.80328 7.64431 4.90957 7.10995C5.01586 6.57559 5.27822 6.08475 5.66347 5.6995C6.04872 5.31425 6.53956 5.0519 7.07392 4.94561C7.60827 4.83932 8.16215 4.89387 8.6655 5.10236C9.16885 5.31086 9.59908 5.66393 9.90177 6.11694C10.2045 6.56995 10.366 7.10254 10.366 7.64736C10.362 9.16885 9.12881 10.4021 7.61133 10.4021ZM27.779 27.779H23.0304V20.3438C23.0304 18.57 22.9983 16.2918 20.56 16.2918C18.0896 16.2918 17.7092 18.2217 17.7092 20.2156V27.779H12.9646V12.4921H17.521V14.5821H17.5851C18.2177 13.381 19.7672 12.1117 22.0814 12.1117C26.8941 12.1117 27.779 15.2788 27.779 19.3948V27.779Z" fill="white"/>
</svg>