<svg xmlns="http://www.w3.org/2000/svg" width="39.717" height="39.688" viewBox="0 0 39.717 39.688">
  <g id="Megaphone_icon" data-name="Megaphone-icon" transform="translate(0 -0.034)">
    <g id="Groupe_4" data-name="Groupe 4" transform="translate(0 0.034)">
      <path id="Tracé_5" data-name="Tracé 5" d="M39.717,16.141A6.427,6.427,0,0,0,34.173,9.77V.833a1.021,1.021,0,0,0-.331-.662A.8.8,0,0,0,33.1.089L11.915,8.611H3.227A3.231,3.231,0,0,0,0,11.838v8.523a3.231,3.231,0,0,0,3.227,3.227H4.385L9.1,39.143a.822.822,0,0,0,.827.579h6.619a.782.782,0,0,0,.827-.827.746.746,0,0,0-.083-.414l-4.385-14.4,20.107,8.192c.083,0,.165.083.331.083a1.176,1.176,0,0,0,.5-.165.753.753,0,0,0,.331-.662V22.512A6.365,6.365,0,0,0,39.717,16.141Zm-38.062,4.3V11.921a1.571,1.571,0,0,1,1.572-1.572h8.026V22.1H3.227A1.769,1.769,0,0,1,1.655,20.443Zm8.853,17.624L6.123,23.67h4.965l4.385,14.4Zm22.01-7.778L12.991,22.347V10.018L32.518,2.074Zm1.655-9.433v-9.35a4.754,4.754,0,0,1,0,9.35Z" transform="translate(0 -0.034)" fill="#613dc1"/>
    </g>
  </g>
</svg>
