<svg id="Rocket_icon" data-name="Rocket-icon" xmlns="http://www.w3.org/2000/svg" width="39.716" height="39.623" viewBox="0 0 39.716 39.623">
  <g id="Groupe_3" data-name="Groupe 3">
    <path id="Tracé_3" data-name="Tracé 3" d="M6.482,12.239A7.9,7.9,0,0,1,8.55,8.433,6.988,6.988,0,0,1,13.265,6.2a3.621,3.621,0,0,1,2.647.993,4,4,0,0,1,.91,3.557,7.9,7.9,0,0,1-2.068,3.805,6.988,6.988,0,0,1-4.715,2.233A3.3,3.3,0,0,1,7.475,15.8,3.744,3.744,0,0,1,6.482,12.239ZM8.55,14.72a1.965,1.965,0,0,0,1.406.5,5.37,5.37,0,0,0,3.557-1.737,5.5,5.5,0,0,0,1.654-2.9,2.319,2.319,0,0,0-.414-2.068,1.965,1.965,0,0,0-1.406-.5A5.37,5.37,0,0,0,9.791,9.757a5.5,5.5,0,0,0-1.654,2.9A2.45,2.45,0,0,0,8.55,14.72Z" transform="translate(17.517 -1.071)" fill="#613dc1"/>
    <path id="Tracé_4" data-name="Tracé 4" d="M.176,18.943a3.434,3.434,0,0,1,2.647-2.316l7.858-1.241A7.672,7.672,0,0,0,14.9,13.235l5.79-5.708A25.525,25.525,0,0,1,38.889,0a.782.782,0,0,1,.827.827,25.525,25.525,0,0,1-7.527,18.2l-5.708,5.708a7.408,7.408,0,0,0-2.151,4.219L23.089,36.81a3.366,3.366,0,0,1-5.708,1.82l-4.467-4.467-.91.91a3.266,3.266,0,0,1-2.316.993,3,3,0,0,1-2.316-.993L4.56,32.261a3.3,3.3,0,0,1,0-4.715l.91-.91L1,22.169A2.855,2.855,0,0,1,.176,18.943Zm24.816,4.963.248-.248,5.708-5.708a24.336,24.336,0,0,0,7.114-16.3A24.434,24.434,0,0,0,21.849,8.686l-5.708,5.708-.248.248A12.89,12.89,0,0,1,24.992,23.906ZM5.718,31.185,8.531,34a1.6,1.6,0,0,0,2.316,0l.91-.91L6.628,27.959l-.91.91A1.6,1.6,0,0,0,5.718,31.185ZM2.161,21.176,18.54,37.555a1.684,1.684,0,0,0,1.158.5,1.75,1.75,0,0,0,1.737-1.489L22.676,28.7a8.584,8.584,0,0,1,.993-2.9h0A10.912,10.912,0,0,0,13.99,16.13h0a9.252,9.252,0,0,1-2.9.993L3.237,18.364a1.5,1.5,0,0,0-1.324,1.158A1.265,1.265,0,0,0,2.161,21.176Z" transform="translate(0)" fill="#613dc1"/>
  </g>
</svg>
