<svg width="37" height="37" viewBox="0 0 37 37" fill="none" xmlns="http://www.w3.org/2000/svg">
<path d="M18.5 0.5625C8.59434 0.5625 0.5625 8.59434 0.5625 18.5C0.5625 28.4057 8.59434 36.4375 18.5 36.4375C28.4057 36.4375 36.4375 28.4057 36.4375 18.5C36.4375 8.59434 28.4057 0.5625 18.5 0.5625ZM27.1204 14.0837C27.1324 14.2719 27.1324 14.4681 27.1324 14.6603C27.1324 20.538 22.6561 27.3086 14.4761 27.3086C11.9536 27.3086 9.61533 26.5759 7.64541 25.3146C8.00576 25.3547 8.3501 25.3707 8.71846 25.3707C10.8005 25.3707 12.7144 24.666 14.2398 23.4729C12.2859 23.4328 10.6443 22.1516 10.0838 20.3898C10.7685 20.4899 11.3851 20.4899 12.0897 20.3098C11.0837 20.1054 10.1794 19.559 9.53051 18.7634C8.88165 17.9678 8.52822 16.9721 8.53027 15.9455V15.8895C9.11885 16.2218 9.81152 16.426 10.5362 16.454C9.92701 16.048 9.42738 15.4979 9.08166 14.8526C8.73593 14.2072 8.55479 13.4865 8.5543 12.7544C8.5543 11.9256 8.77051 11.1688 9.15889 10.5122C10.2756 11.8869 11.6691 13.0112 13.2487 13.8121C14.8284 14.613 16.5589 15.0725 18.3278 15.1607C17.6992 12.1378 19.9574 9.69141 22.6721 9.69141C23.9533 9.69141 25.1064 10.2279 25.9192 11.0928C26.9242 10.9046 27.8852 10.5282 28.742 10.0237C28.4097 11.0527 27.713 11.9216 26.7881 12.4701C27.685 12.374 28.5498 12.1258 29.3506 11.7774C28.746 12.6663 27.9893 13.4551 27.1204 14.0837Z" fill="white"/>
</svg>