<svg id="Wrench_icon" data-name="Wrench-icon" xmlns="http://www.w3.org/2000/svg" width="39.718" height="39.823" viewBox="0 0 39.718 39.823">
  <g id="Groupe_5" data-name="Groupe 5" transform="translate(0)">
    <path id="Tracé_6" data-name="Tracé 6" d="M1.495,31.3,16.563,16.144a6.358,6.358,0,0,0,1.821-4.8,10.487,10.487,0,0,1,3.146-8.2A10.12,10.12,0,0,1,29.064,0a14.78,14.78,0,0,1,1.9.166.818.818,0,0,1,.58.58.963.963,0,0,1-.166.828l-5.05,5.05,1.242,5.547,5.547,1.242,5.05-5.05A.659.659,0,0,1,39,8.2a.8.8,0,0,1,.58.662A10.67,10.67,0,0,1,36.6,18.3a10.783,10.783,0,0,1-8.2,3.146,6.064,6.064,0,0,0-4.8,1.821L8.532,38.332a4.957,4.957,0,0,1-3.477,1.49,4.635,4.635,0,0,1-3.477-1.49A4.831,4.831,0,0,1,1.495,31.3Zm1.159,5.8a3.006,3.006,0,0,0,2.318.993,3.006,3.006,0,0,0,2.318-.993L22.358,22.022a7.885,7.885,0,0,1,5.63-2.318h.5a9.073,9.073,0,0,0,9.6-8.941l-4.14,4.14a1.156,1.156,0,0,1-.745.248l-6.541-1.49A.9.9,0,0,1,26,13l-1.49-6.541a.668.668,0,0,1,.248-.745L28.9,1.656a8.9,8.9,0,0,0-6.292,2.649,9.1,9.1,0,0,0-2.649,6.954,7.859,7.859,0,0,1-2.235,6.127L2.654,32.454A3.2,3.2,0,0,0,2.654,37.091Z" transform="translate(-0.015)" fill="#613dc1"/>
    <path id="Tracé_7" data-name="Tracé 7" d="M40.19,38.848a.82.82,0,0,1,1.159,1.159l-1.242,1.242a.894.894,0,0,1-.58.248.752.752,0,0,1-.58-.248.8.8,0,0,1,0-1.159Z" transform="translate(-33.908 -6.643)" fill="#613dc1"/>
  </g>
</svg>
